<svg width="20" height="17" viewBox="0 0 20 17" fill="none" xmlns="http://www.w3.org/2000/svg">
<path d="M18.5 2.55461C18.4989 2.55461 18.4978 2.55448 18.4967 2.55448H13.6688V2.02198C13.6688 1.14115 12.9521 0.4245 12.0713 0.4245H7.81132C6.93048 0.4245 6.21383 1.14115 6.21383 2.02198V2.55448H1.38589C1.08941 2.55448 0.853394 2.79743 0.853394 3.08697V14.8018C0.853394 15.6827 1.57004 16.3993 2.45088 16.3993H17.4317C18.3125 16.3993 19.0292 15.6827 19.0292 14.8018V3.0982C19.0292 3.09751 19.0292 3.09682 19.0292 3.09612C19.0088 2.7464 18.7937 2.55656 18.5 2.55461ZM7.27882 2.02198C7.27882 1.72842 7.51775 1.48949 7.81132 1.48949H12.0713C12.3648 1.48949 12.6038 1.72842 12.6038 2.02198V2.55448H7.27882V2.02198ZM17.7579 3.61946L16.1042 8.58026C16.0317 8.79811 15.8287 8.9444 15.5992 8.9444H12.6038V8.41191C12.6038 8.11779 12.3654 7.87942 12.0713 7.87942H7.81132C7.5172 7.87942 7.27882 8.11779 7.27882 8.41191V8.9444H4.2834C4.05391 8.9444 3.85089 8.79811 3.77837 8.58026L2.12472 3.61946H17.7579ZM11.5388 8.9444V10.0094H8.34381V8.9444H11.5388ZM17.9642 14.8018C17.9642 15.0954 17.7253 15.3343 17.4317 15.3343H2.45088C2.15731 15.3343 1.91838 15.0954 1.91838 14.8018V6.36833L2.76801 8.91709C2.98573 9.5705 3.59477 10.0094 4.2834 10.0094H7.27882V10.5419C7.27882 10.836 7.5172 11.0744 7.81132 11.0744H12.0713C12.3654 11.0744 12.6038 10.836 12.6038 10.5419V10.0094H15.5992C16.2878 10.0094 16.8969 9.5705 17.1146 8.91709L17.9642 6.36833V14.8018Z" fill="#828282"/>
</svg>
