<svg width="32" height="29" viewBox="0 0 32 29" fill="none" xmlns="http://www.w3.org/2000/svg">
<path d="M30.6441 4.56206C30.6422 4.56206 30.6403 4.56182 30.6384 4.56182H22.4612V3.65992C22.4612 2.16803 21.2474 0.954224 19.7555 0.954224H12.5403C11.0484 0.954224 9.83462 2.16803 9.83462 3.65992V4.56182H1.65739C1.15524 4.56182 0.755493 4.97332 0.755493 5.46372V25.3055C0.755493 26.7974 1.9693 28.0112 3.46119 28.0112H28.8346C30.3265 28.0112 31.5403 26.7974 31.5403 25.3055V5.48275C31.5403 5.48157 31.5403 5.4804 31.5403 5.47923C31.5058 4.88688 31.1415 4.56535 30.6441 4.56206ZM11.6384 3.65992C11.6384 3.1627 12.0431 2.75802 12.5403 2.75802H19.7555C20.2527 2.75802 20.6574 3.1627 20.6574 3.65992V4.56182H11.6384V3.65992ZM29.3871 6.36562L26.5862 14.7679C26.4634 15.1368 26.1196 15.3846 25.7308 15.3846H20.6574V14.4827C20.6574 13.9846 20.2537 13.5808 19.7555 13.5808H12.5403C12.0422 13.5808 11.6384 13.9846 11.6384 14.4827V15.3846H6.565C6.17629 15.3846 5.83244 15.1368 5.7096 14.7679L2.90878 6.36562H29.3871ZM18.8536 15.3846V17.1884H13.4422V15.3846H18.8536ZM29.7365 25.3055C29.7365 25.8027 29.3319 26.2074 28.8346 26.2074H3.46119C2.96397 26.2074 2.55929 25.8027 2.55929 25.3055V11.0214L3.99834 15.3384C4.36709 16.4451 5.39863 17.1884 6.565 17.1884H11.6384V18.0903C11.6384 18.5885 12.0422 18.9922 12.5403 18.9922H19.7555C20.2537 18.9922 20.6574 18.5885 20.6574 18.0903V17.1884H25.7308C26.8972 17.1884 27.9288 16.4451 28.2975 15.3384L29.7365 11.0214V25.3055Z" fill="#828282"/>
</svg>
