<svg width="16" height="18" viewBox="0 0 16 18" fill="none" xmlns="http://www.w3.org/2000/svg">
<path d="M7.66027 17.7759C7.89367 17.7742 8.12442 17.729 8.33933 17.643C8.55423 17.5571 8.7491 17.432 8.9128 17.2749C9.07649 17.1179 9.20581 16.9319 9.29337 16.7277C9.38093 16.5234 9.425 16.3049 9.4231 16.0846H5.89744C5.89554 16.3049 5.93964 16.5234 6.0272 16.7277C6.11476 16.9319 6.24407 17.1179 6.40777 17.2749C6.57146 17.432 6.76633 17.5571 6.98124 17.643C7.19614 17.729 7.42687 17.7742 7.66027 17.7759ZM13.44 12.7701V8.1871C13.4458 6.96755 13.0108 5.78261 12.207 4.82788C11.4031 3.87315 10.2784 3.20572 9.01852 2.93575V2.34923C9.03791 2.17438 9.01816 1.99762 8.96055 1.83043C8.90294 1.66324 8.80877 1.50935 8.68411 1.37872C8.55946 1.24809 8.40713 1.14364 8.23698 1.07215C8.06683 1.00066 7.88265 0.963715 7.69641 0.963715C7.51016 0.963715 7.32599 1.00066 7.15583 1.07215C6.98568 1.14364 6.83335 1.24809 6.7087 1.37872C6.58405 1.50935 6.48985 1.66324 6.43224 1.83043C6.37463 1.99762 6.35489 2.17438 6.37428 2.34923V2.93575C5.11439 3.20572 3.98968 3.87315 3.18583 4.82788C2.38197 5.78261 1.94702 6.96755 1.95277 8.1871V12.7701L0.189941 14.4342V15.2662H15.2029V14.4342L13.44 12.7701Z" fill="#73ACB8"/>
</svg>
