<svg width="20" height="20" viewBox="0 0 20 20" fill="none" xmlns="http://www.w3.org/2000/svg">
<path d="M18.9346 9.12368C18.6458 8.85727 18.253 8.69271 17.8568 8.67211C17.4068 8.64885 16.9853 8.80929 16.6713 9.12339L14.5262 11.246C14.4838 11.1725 14.4354 11.1032 14.3811 11.0389C14.1172 10.7255 13.7312 10.553 13.2945 10.553H10.2916C9.72538 10.553 9.17299 10.4796 8.64988 10.3349C7.28604 9.95765 5.98313 10.2332 4.88173 11.1322C4.43384 11.4978 4.10708 11.8955 3.90043 12.1855L3.36201 11.663C3.29122 11.5942 3.19525 11.5552 3.09649 11.5552C3.0956 11.5552 3.09487 11.5552 3.09398 11.5552C2.99169 11.556 2.89278 11.5985 2.82183 11.6721L0.204394 14.3893C0.134332 14.462 0.0962106 14.5598 0.0984185 14.6607C0.100626 14.7619 0.142869 14.8578 0.216022 14.9274L4.64299 19.1428C4.71644 19.2127 4.81064 19.2476 4.90469 19.2476C5.00345 19.2476 5.10222 19.2091 5.17655 19.1329L7.76955 16.4726C7.84035 16.3999 7.87965 16.3006 7.87774 16.199C7.87582 16.0989 7.83387 16.0024 7.76205 15.9326L7.53626 15.7136L8.05304 15.6554C8.36566 15.6191 8.68359 15.6007 8.99828 15.6007H13.5671C14.3095 15.6007 14.9401 15.4383 15.4414 15.1181C15.4455 15.1154 15.4497 15.1126 15.4538 15.1098C15.6334 14.985 15.7963 14.8371 15.9379 14.6703L19.0168 11.0482C19.5437 10.4284 19.5107 9.65488 18.9346 9.12368ZM4.89483 18.3345L1.01584 14.641L3.10547 12.4716L6.96179 16.2139L4.89483 18.3345ZM18.4385 10.5566L15.3596 14.1788C15.2619 14.2938 15.1498 14.3959 15.0264 14.4825C14.65 14.7208 14.1591 14.8418 13.5671 14.8418H8.99813C8.65445 14.8418 8.30694 14.8619 7.96678 14.9015L6.83079 15.029L4.45223 12.7208C4.61753 12.4757 4.92147 12.0797 5.36171 11.7202C6.27692 10.9731 7.31518 10.753 8.4475 11.0664C9.03654 11.2293 9.65694 11.3121 10.2916 11.3121H13.2945C13.8338 11.3121 13.9778 11.7792 13.9778 12.0552C13.9778 12.2569 13.913 12.4488 13.8001 12.5819C13.6777 12.726 13.5035 12.799 13.2826 12.799H10.6686C10.459 12.799 10.2891 12.969 10.2891 13.1786C10.2891 13.3882 10.459 13.558 10.6686 13.558H13.2826C13.7239 13.558 14.1131 13.3858 14.3786 13.0732C14.5995 12.8132 14.7255 12.4715 14.7361 12.1061L17.2066 9.6615C17.5597 9.3084 18.1114 9.39701 18.4201 9.68167C18.5796 9.82886 18.7942 10.1381 18.4385 10.5566Z" fill="black"/>
<path d="M9.48506 13.0774C9.43722 12.8733 9.23307 12.7468 9.02892 12.7945C8.82492 12.8423 8.69819 13.0465 8.74617 13.2506L8.74971 13.2661C8.79077 13.441 8.94664 13.559 9.11885 13.559C9.14756 13.559 9.1767 13.5558 9.20584 13.549C9.40999 13.5012 9.53657 13.2969 9.48874 13.0929L9.48506 13.0774Z" fill="black"/>
<path d="M2.66352 8.25452H6.36147C6.56282 8.25452 6.74916 8.18916 6.90077 8.07877C7.05237 8.18916 7.23871 8.25452 7.44006 8.25452H11.1382C11.3395 8.25452 11.5258 8.18916 11.6775 8.07877C11.8291 8.18916 12.0154 8.25452 12.2167 8.25452H15.9147C16.4213 8.25452 16.8334 7.84224 16.8334 7.33562V5.61117C16.8334 4.83667 16.4 4.16387 15.7512 3.83196C16.0656 3.45281 16.2548 2.9665 16.2548 2.43662C16.2548 1.22953 15.2728 0.247498 14.0657 0.247498C12.8586 0.247498 11.8766 1.22953 11.8766 2.43662C11.8766 2.9665 12.0659 3.45295 12.3803 3.83196C12.0999 3.97562 11.8598 4.18301 11.6775 4.43455C11.4951 4.18286 11.255 3.97547 10.9745 3.83196C11.2889 3.45295 11.4782 2.9665 11.4782 2.43662C11.4782 1.22953 10.4961 0.247498 9.28903 0.247498C8.08195 0.247498 7.09991 1.22953 7.09991 2.43662C7.09991 2.9665 7.28934 3.45295 7.60373 3.83211C7.32319 3.97562 7.08313 4.18301 6.90077 4.4347C6.7184 4.18301 6.47834 3.97562 6.1978 3.83196C6.51219 3.45295 6.70147 2.9665 6.70147 2.43677C6.70147 1.22953 5.71944 0.247498 4.51235 0.247498C3.30541 0.247498 2.32337 1.22953 2.32337 2.43677C2.32337 2.9665 2.51265 3.45295 2.82705 3.83211C2.17824 4.16402 1.74463 4.83696 1.74463 5.61132V7.33562C1.74463 7.84224 2.1569 8.25452 2.66352 8.25452ZM14.0659 1.00655C14.8544 1.00655 15.4959 1.64799 15.4959 2.43662C15.4959 3.22511 14.8544 3.8667 14.0659 3.8667C13.2772 3.8667 12.6358 3.22525 12.6358 2.43662C12.6356 1.64799 13.2772 1.00655 14.0659 1.00655ZM13.0799 4.39025C13.3764 4.54052 13.7113 4.62575 14.0657 4.62575C14.4203 4.62575 14.7551 4.54052 15.0516 4.39025C15.6414 4.49298 16.0745 5.00122 16.0745 5.61117V7.33562C16.0745 7.42379 16.0029 7.49547 15.9147 7.49547H12.2167C12.1287 7.49547 12.057 7.42379 12.057 7.33562V5.61117C12.0569 5.00137 12.4902 4.49298 13.0799 4.39025ZM9.28918 1.00655C10.0777 1.00655 10.7193 1.64799 10.7193 2.43662C10.7193 3.22511 10.0777 3.8667 9.28918 3.8667C8.50055 3.8667 7.85911 3.22525 7.85911 2.43662C7.85911 1.64799 8.50055 1.00655 9.28918 1.00655ZM8.30332 4.39025C8.59975 4.54052 8.93461 4.62575 9.28918 4.62575C9.64376 4.62575 9.97846 4.54052 10.275 4.39025C10.8647 4.49298 11.298 5.00122 11.298 5.61117V7.33562C11.298 7.42379 11.2263 7.49547 11.1382 7.49547H7.44021C7.35204 7.49547 7.28036 7.42379 7.28036 7.33562V5.61117C7.28036 5.00137 7.71368 4.49298 8.30332 4.39025ZM4.5125 1.00655C5.30098 1.00655 5.94257 1.64799 5.94257 2.43662C5.94257 3.22511 5.30098 3.8667 4.5125 3.8667C3.72401 3.8667 3.08242 3.22511 3.08242 2.43662C3.08242 1.64799 3.72401 1.00655 4.5125 1.00655ZM2.50368 5.61117C2.50368 5.00137 2.937 4.49298 3.52663 4.39025C3.82322 4.54052 4.15792 4.62575 4.5125 4.62575C4.86707 4.62575 5.20178 4.54052 5.49836 4.39025C6.08814 4.49298 6.52132 5.00122 6.52132 5.61117V7.33562C6.52132 7.42379 6.44963 7.49547 6.36147 7.49547H2.66352C2.57536 7.49547 2.50368 7.42379 2.50368 7.33562V5.61117Z" fill="black"/>
</svg>
