<svg width="45" height="45" viewBox="0 0 45 45" fill="none" xmlns="http://www.w3.org/2000/svg">
<path d="M7.24111 30.0112C3.96081 30.0112 0.641113 31.0188 0.641113 32.9445V41.7445C0.641113 43.6702 3.96081 44.6778 7.24111 44.6778C10.5214 44.6778 13.8411 43.6702 13.8411 41.7445V32.9445C13.8411 31.0188 10.5214 30.0112 7.24111 30.0112ZM7.24111 31.4778C10.5755 31.4778 12.3744 32.5191 12.3744 32.9445C12.3744 33.3699 10.5755 34.4112 7.24111 34.4112C3.90674 34.4112 2.10778 33.3699 2.10778 32.9445C2.10778 32.5191 3.90674 31.4778 7.24111 31.4778ZM7.24111 43.2112C3.90674 43.2112 2.10778 42.1699 2.10778 41.7445V40.7179C3.71875 41.4459 5.47438 41.7968 7.24111 41.7445C9.00784 41.7968 10.7635 41.4459 12.3744 40.7179V41.7445C12.3744 42.1699 10.5755 43.2112 7.24111 43.2112ZM7.24111 40.2778C3.90674 40.2778 2.10778 39.2366 2.10778 38.8112V37.7846C3.71875 38.5125 5.47438 38.8634 7.24111 38.8112C9.00784 38.8634 10.7635 38.5125 12.3744 37.7846V38.8112C12.3744 39.2366 10.5755 40.2778 7.24111 40.2778ZM7.24111 37.3445C3.90674 37.3445 2.10778 36.3032 2.10778 35.8778V34.8512C3.71875 35.5792 5.47438 35.9301 7.24111 35.8778C9.00784 35.9301 10.7635 35.5792 12.3744 34.8512V35.8778C12.3744 36.3032 10.5755 37.3445 7.24111 37.3445Z" fill="#828282"/>
<path d="M22.641 24.1445C19.3607 24.1445 16.041 25.1521 16.041 27.0779V41.7445C16.041 43.6702 19.3607 44.6779 22.641 44.6779C25.9213 44.6779 29.241 43.6702 29.241 41.7445V27.0779C29.241 25.1521 25.9213 24.1445 22.641 24.1445ZM22.641 25.6112C25.9754 25.6112 27.7743 26.6525 27.7743 27.0779C27.7743 27.5033 25.9754 28.5445 22.641 28.5445C19.3066 28.5445 17.5077 27.5033 17.5077 27.0779C17.5077 26.6525 19.3066 25.6112 22.641 25.6112ZM22.641 43.2112C19.3066 43.2112 17.5077 42.1699 17.5077 41.7445V40.7179C19.1187 41.4459 20.8743 41.7968 22.641 41.7445C24.4077 41.7968 26.1634 41.4459 27.7743 40.7179V41.7445C27.7743 42.1699 25.9754 43.2112 22.641 43.2112ZM22.641 40.2779C19.3066 40.2779 17.5077 39.2366 17.5077 38.8112V37.7846C19.1187 38.5126 20.8743 38.8635 22.641 38.8112C24.4077 38.8635 26.1634 38.5126 27.7743 37.7846V38.8112C27.7743 39.2366 25.9754 40.2779 22.641 40.2779ZM22.641 37.3445C19.3066 37.3445 17.5077 36.3033 17.5077 35.8779V34.8513C19.1187 35.5792 20.8743 35.9301 22.641 35.8779C24.4077 35.9301 26.1634 35.5792 27.7743 34.8513V35.8779C27.7743 36.3033 25.9754 37.3445 22.641 37.3445ZM22.641 34.4112C19.3066 34.4112 17.5077 33.3699 17.5077 32.9445V31.9179C19.1187 32.6459 20.8743 32.9968 22.641 32.9445C24.4077 32.9968 26.1634 32.6459 27.7743 31.9179V32.9445C27.7743 33.3699 25.9754 34.4112 22.641 34.4112ZM22.641 31.4779C19.3066 31.4779 17.5077 30.4366 17.5077 30.0112V28.9846C19.1187 29.7126 20.8743 30.0635 22.641 30.0112C24.4077 30.0635 26.1634 29.7126 27.7743 28.9846V30.0112C27.7743 30.4366 25.9754 31.4779 22.641 31.4779Z" fill="#828282"/>
<path d="M38.0414 15.3445C34.7611 15.3445 31.4414 16.3521 31.4414 18.2779V41.7445C31.4414 43.6702 34.7611 44.6779 38.0414 44.6779C41.3217 44.6779 44.6414 43.6702 44.6414 41.7445V18.2779C44.6414 16.3521 41.3217 15.3445 38.0414 15.3445ZM38.0414 16.8112C41.3758 16.8112 43.1747 17.8525 43.1747 18.2779C43.1747 18.7033 41.3758 19.7445 38.0414 19.7445C34.707 19.7445 32.9081 18.7033 32.9081 18.2779C32.9081 17.8525 34.707 16.8112 38.0414 16.8112ZM38.0414 43.2112C34.707 43.2112 32.9081 42.1699 32.9081 41.7445V40.7179C34.519 41.4459 36.2747 41.7968 38.0414 41.7445C39.8081 41.7968 41.5638 41.4459 43.1747 40.7179V41.7445C43.1747 42.1699 41.3758 43.2112 38.0414 43.2112ZM38.0414 40.2779C34.707 40.2779 32.9081 39.2366 32.9081 38.8112V37.7846C34.519 38.5126 36.2747 38.8635 38.0414 38.8112C39.8081 38.8635 41.5638 38.5126 43.1747 37.7846V38.8112C43.1747 39.2366 41.3758 40.2779 38.0414 40.2779ZM38.0414 37.3445C34.707 37.3445 32.9081 36.3032 32.9081 35.8779V34.8513C34.519 35.5792 36.2747 35.9301 38.0414 35.8779C39.8081 35.9301 41.5638 35.5792 43.1747 34.8513V35.8779C43.1747 36.3032 41.3758 37.3445 38.0414 37.3445ZM38.0414 34.4112C34.707 34.4112 32.9081 33.3699 32.9081 32.9445V31.9179C34.519 32.6459 36.2747 32.9968 38.0414 32.9445C39.8081 32.9968 41.5638 32.6459 43.1747 31.9179V32.9445C43.1747 33.3699 41.3758 34.4112 38.0414 34.4112ZM38.0414 31.4779C34.707 31.4779 32.9081 30.4366 32.9081 30.0112V28.9846C34.519 29.7126 36.2747 30.0635 38.0414 30.0112C39.8081 30.0635 41.5638 29.7126 43.1747 28.9846V30.0112C43.1747 30.4366 41.3758 31.4779 38.0414 31.4779ZM38.0414 28.5445C34.707 28.5445 32.9081 27.5032 32.9081 27.0779V26.0513C34.519 26.7792 36.2747 27.1301 38.0414 27.0779C39.8081 27.1301 41.5638 26.7792 43.1747 26.0513V27.0779C43.1747 27.5032 41.3758 28.5445 38.0414 28.5445ZM38.0414 25.6112C34.707 25.6112 32.9081 24.5699 32.9081 24.1445V23.1179C34.519 23.8459 36.2747 24.1968 38.0414 24.1445C39.8081 24.1968 41.5638 23.8459 43.1747 23.1179V24.1445C43.1747 24.5699 41.3758 25.6112 38.0414 25.6112ZM38.0414 22.6779C34.707 22.6779 32.9081 21.6366 32.9081 21.2112V20.1846C34.519 20.9126 36.2747 21.2635 38.0414 21.2112C39.8081 21.2635 41.5638 20.9126 43.1747 20.1846V21.2112C43.1747 21.6366 41.3758 22.6779 38.0414 22.6779Z" fill="#828282"/>
<path d="M36.5745 0.677856V2.14452H42.1375L28.2042 16.0779H12.8321L0.891113 26.5257L1.85791 27.63L13.3836 17.5445H28.8115L43.1745 3.1815V8.74452H44.6412V0.677856H36.5745Z" fill="#828282"/>
</svg>
