<svg width="15" height="16" viewBox="0 0 15 16" fill="none" xmlns="http://www.w3.org/2000/svg">
<path d="M0.45478 2.74451C0.513744 2.68562 0.589216 2.65601 0.680955 2.65601H3.72136L4.41009 1.01299C4.50845 0.770234 4.68558 0.563598 4.94126 0.393044C5.19718 0.222524 5.4564 0.137299 5.71869 0.137299H8.86728C9.12957 0.137299 9.38873 0.222524 9.64454 0.393044C9.90039 0.563598 10.0775 0.770199 10.1759 1.01299L10.8646 2.65601H13.9049C13.9968 2.65601 14.0722 2.68562 14.1312 2.74451C14.1901 2.80355 14.2197 2.87902 14.2197 2.97083V3.60059C14.2197 3.6924 14.1903 3.76787 14.1312 3.8268C14.0722 3.8858 13.9967 3.9153 13.9049 3.9153H12.9604V13.2822C12.9604 13.8268 12.8063 14.2907 12.498 14.6744C12.1897 15.0583 11.8191 15.25 11.3861 15.25H3.19988C2.76682 15.25 2.39625 15.0516 2.08795 14.6549C1.77968 14.2579 1.62564 13.7873 1.62564 13.2429V3.9153H0.68099C0.589252 3.9153 0.513744 3.8858 0.454814 3.8268C0.395952 3.76791 0.366245 3.6924 0.366245 3.60059V2.97083C0.366177 2.87902 0.395918 2.80355 0.45478 2.74451ZM9.01481 1.5047C8.96894 1.4457 8.91315 1.40951 8.84756 1.39648H5.72859C5.663 1.40961 5.60711 1.44576 5.56131 1.5047L5.08886 2.65588H9.49694L9.01481 1.5047ZM2.88492 13.243C2.88492 13.3873 2.90781 13.5202 2.95382 13.6414C2.99979 13.7627 3.04745 13.8512 3.09652 13.907C3.14584 13.9629 3.18003 13.9906 3.19984 13.9906H11.3861C11.4058 13.9906 11.44 13.9629 11.4893 13.907C11.5386 13.8512 11.5862 13.7627 11.6321 13.6414C11.678 13.5202 11.7009 13.3871 11.7009 13.243V3.9153H2.88496V13.243H2.88492Z" fill="#828282"/>
<path d="M10.1261 12.1017H9.49644C9.40453 12.1017 9.32903 12.0722 9.27013 12.0132C9.21123 11.954 9.18163 11.8788 9.18163 11.7868V6.11931C9.18163 6.02753 9.21123 5.95206 9.27013 5.89299C9.3292 5.8341 9.4045 5.8046 9.49644 5.8046H10.1261C10.218 5.8046 10.2934 5.83406 10.3524 5.89299C10.4114 5.95206 10.4409 6.02753 10.4409 6.11931V11.7868C10.4409 11.8788 10.4115 11.954 10.3524 12.0132C10.2934 12.0722 10.218 12.1017 10.1261 12.1017Z" fill="#828282"/>
<path d="M7.60755 12.1017H6.97789C6.88601 12.1017 6.81054 12.0722 6.75168 12.0132C6.69247 11.954 6.66314 11.8788 6.66314 11.7868V6.11931C6.66314 6.02753 6.69251 5.95206 6.75168 5.89299C6.81054 5.8341 6.88601 5.8046 6.97789 5.8046H7.60755C7.69936 5.8046 7.77483 5.83406 7.83386 5.89299C7.89293 5.95206 7.92236 6.02753 7.92236 6.11931V11.7868C7.92236 11.8788 7.89293 11.954 7.83386 12.0132C7.77486 12.0722 7.69936 12.1017 7.60755 12.1017Z" fill="#828282"/>
<path d="M5.08893 12.1017H4.45937C4.36739 12.1017 4.29192 12.0722 4.23295 12.0132C4.17399 11.954 4.14466 11.8788 4.14466 11.7868V6.11931C4.14466 6.02753 4.17402 5.95206 4.23295 5.89299C4.29192 5.8341 4.36739 5.8046 4.45937 5.8046H5.08893C5.18094 5.8046 5.25617 5.83406 5.31538 5.89299C5.37434 5.95206 5.40381 6.02753 5.40381 6.11931V11.7868C5.40381 11.8788 5.37434 11.954 5.31538 12.0132C5.25617 12.0722 5.18094 12.1017 5.08893 12.1017Z" fill="#828282"/>
</svg>
