<svg width="42" height="25" viewBox="0 0 42 25" fill="none" xmlns="http://www.w3.org/2000/svg">
<path d="M41.2851 19.1117C41.014 18.7094 40.4806 18.6045 40.0783 18.8756L33.5542 23.1521H24.9662V19.5665H33.8166C34.0002 19.5665 34.1839 19.4965 34.3238 19.3916L41.0578 14.5291C41.4513 14.2493 41.5387 13.6983 41.2502 13.3135C40.9703 12.92 40.4193 12.8325 40.0345 13.1211L33.5367 17.8174H24.9662V14.1443H33.8166C34.009 14.1531 34.2014 14.0918 34.3588 13.9782L41.0927 8.66969C41.4688 8.3636 41.53 7.81264 41.2239 7.43659C40.9266 7.06054 40.3844 6.99932 40.0083 7.28792L33.5105 12.3952H24.9662V8.89707H33.8166C34.0352 8.88833 34.2538 8.80087 34.4112 8.6522L41.1452 2.40798C41.4076 2.15436 41.495 1.76956 41.3638 1.42849C41.2327 1.08742 40.9091 0.860041 40.5505 0.851296H32.2074C32.1987 0.851296 32.1812 0.693879 32.1549 0.623915C32.0237 0.29159 31.7002 0.064209 31.3416 0.064209H17.9611C17.7425 0.064209 17.5239 0.151663 17.3664 0.300335L16.7805 0.851296H8.24498C8.02635 0.860041 7.80771 0.947495 7.65029 1.10491L0.916328 7.34039C0.653965 7.59401 0.566511 7.9788 0.697692 8.31987C0.828874 8.66095 1.15245 8.88833 1.51102 8.89707H9.83664V12.3952H1.51102C1.03002 12.3952 0.636475 12.7888 0.636475 13.2698C0.636475 13.7508 1.03002 14.1443 1.51102 14.1443H9.83664V17.8174H1.51102C1.03002 17.8174 0.636475 18.2109 0.636475 18.6919C0.636475 19.1729 1.03002 19.5665 1.51102 19.5665H9.83664V23.1521H1.51102C1.03002 23.1521 0.636475 23.5456 0.636475 24.0266C0.636475 24.5076 1.03002 24.9012 1.51102 24.9012H33.8166C33.9915 24.8924 34.1576 24.84 34.2976 24.735L41.0315 20.3273C41.4338 20.065 41.5475 19.514 41.2851 19.1117ZM30.8868 2.60038H38.3204L33.4755 7.14799H26.0331L30.8519 2.63536C30.8606 2.63536 30.8694 2.60038 30.8868 2.60038ZM10.0815 7.14799H3.74109L8.58605 2.60038H14.9002L10.1252 7.07803C10.1078 7.08677 10.099 7.06054 10.0815 7.14799ZM23.2171 7.71644V23.1521H11.5857V8.10124L17.5763 2.51292L18.3022 1.81329H29.1203L23.497 7.05179C23.3133 7.2267 23.2171 7.46282 23.2171 7.71644Z" fill="#828282"/>
<path d="M17.349 11.4682C17.349 11.4682 17.3577 11.4682 17.3665 11.4682C18.1623 11.4682 18.8095 12.1154 18.8095 12.9112C18.8007 13.3922 19.1943 13.7858 19.6753 13.7945C20.1563 13.8033 20.5498 13.4097 20.5585 12.9287C20.5585 12.92 20.5585 12.92 20.5585 12.9112C20.5411 11.4857 19.6053 10.2439 18.2323 9.84158V9.27313C18.2323 8.79213 17.8387 8.39859 17.3577 8.39859C16.8767 8.39859 16.4832 8.79213 16.4832 9.27313V9.84158C14.7866 10.3226 13.8071 12.0979 14.2881 13.7858C14.6816 15.1588 15.9322 16.1033 17.3577 16.1033C18.1536 16.1033 18.8007 16.7505 18.8007 17.5463C18.8007 18.3421 18.1536 18.9893 17.3577 18.9893C16.5619 18.9893 15.9147 18.3421 15.9147 17.5463C15.9147 17.0653 15.5212 16.6717 15.0402 16.6717C14.5592 16.6717 14.1656 17.0653 14.1656 17.5463C14.1744 18.9718 15.1189 20.2136 16.4832 20.6159V21.1844C16.4832 21.6654 16.8767 22.0589 17.3577 22.0589C17.8387 22.0589 18.2323 21.6654 18.2323 21.1844V20.6159C19.5965 20.2136 20.5411 18.9718 20.5585 17.5463C20.5585 15.7797 19.133 14.3542 17.3665 14.3542C16.5706 14.363 15.9147 13.7158 15.9147 12.92C15.906 12.1241 16.5531 11.4682 17.349 11.4682Z" fill="#828282"/>
</svg>
