<svg width="50" height="50" viewBox="0 0 50 50" fill="none" xmlns="http://www.w3.org/2000/svg">
<path d="M20.8211 35.2787C21.3531 35.2787 21.7848 34.8469 21.7848 34.315C21.7848 33.7831 21.3531 33.3513 20.8211 33.3513C20.2892 33.3513 19.8574 33.7831 19.8574 34.315C19.8574 34.8469 20.2892 35.2787 20.8211 35.2787Z" fill="#828282"/>
<path d="M0.28722 37.502L11.8517 49.0665C12.2282 49.443 12.838 49.443 13.2145 49.0665L19.575 42.706C19.9514 42.3296 19.9514 41.7197 19.575 41.3433L19.2926 41.0609H33.1844C34.4044 41.0609 35.5688 40.6036 36.4666 39.7701L48.158 28.8128C49.2772 27.7734 49.648 26.1223 49.0803 24.7046C48.67 23.6784 47.832 22.8931 46.7817 22.5502C45.7311 22.2065 44.5915 22.3458 43.6542 22.9315C43.6482 22.9353 41.0586 24.6346 41.0586 24.6346C41.0409 19.4106 37.8836 13.8399 33.5375 11.332C33.7856 11.047 33.9806 10.7097 34.1048 10.3321C34.6021 8.8192 33.7754 7.18164 32.2602 6.68134C32.2128 6.66553 32.1653 6.6516 32.1179 6.63692L34.5987 2.18051C34.7414 1.92415 34.7598 1.61659 34.648 1.34555C34.5366 1.07413 34.3077 0.868213 34.0257 0.786523C32.247 0.269282 30.3983 0.00689697 28.5307 0.00689697C26.6635 0.00689697 24.8144 0.269282 23.0357 0.786147C22.7537 0.868213 22.5248 1.07375 22.413 1.34517C22.3016 1.61659 22.3197 1.92415 22.4627 2.18051L24.9435 6.63692C24.8953 6.65198 24.8472 6.66628 24.799 6.68209C23.286 7.18164 22.4597 8.81882 22.957 10.3329C23.0812 10.7097 23.2777 11.0459 23.5266 11.3312C19.1157 13.8764 16.0025 19.5043 16.0025 24.6779C16.0025 24.819 16.0059 24.9583 16.0104 25.0965C14.2844 25.5674 12.6796 26.4253 11.33 27.607L8.40121 30.1695L8.01046 29.7788C7.63401 29.4023 7.02416 29.4023 6.64771 29.7788L0.28722 36.1392C-0.0892295 36.5157 -0.0892295 37.1255 0.28722 37.502ZM24.7561 2.33749C25.9908 2.06946 27.2557 1.93432 28.5307 1.93432C29.8057 1.93432 31.0706 2.06946 32.3057 2.33749L30.1581 6.19497C29.0754 6.04401 27.9852 6.04401 26.9037 6.19497L24.7561 2.33749ZM25.4005 8.51314C27.378 7.86603 29.5339 7.81709 31.6583 8.51239C32.1638 8.67916 32.4398 9.22576 32.2737 9.7302C32.1488 10.11 31.81 10.3679 31.4173 10.3909C29.517 9.78667 27.5433 9.78554 25.6437 10.389C25.6437 10.389 25.6437 10.389 25.6433 10.389C25.2473 10.3641 24.9111 10.1051 24.7877 9.73058C24.6217 9.22538 24.8976 8.67878 25.4005 8.51314ZM25.9336 12.3247C27.6046 11.7227 29.3359 11.7084 31.0111 12.284C35.4886 13.8237 39.1315 19.3835 39.1315 24.6779C39.1315 25.1266 39.1033 25.5542 39.0476 25.954L34.4154 28.9931C33.6982 28.1047 32.6114 27.569 31.4218 27.569H29.4944V26.4397C30.6162 26.0417 31.4218 24.9704 31.4218 23.7142C31.4218 22.1199 30.125 20.823 28.5307 20.823C27.9995 20.823 27.567 20.3909 27.567 19.8593C27.567 19.3278 27.9995 18.8956 28.5307 18.8956C28.8722 18.8956 29.2324 19.0699 29.5731 19.3993C29.9556 19.7694 30.5658 19.7592 30.9358 19.3771C31.3059 18.9946 31.2957 18.3844 30.9133 18.0143C30.4243 17.5408 29.9349 17.2731 29.4944 17.1271V16.0045C29.4944 15.4722 29.063 15.0408 28.5307 15.0408C27.9984 15.0408 27.567 15.4722 27.567 16.0045V17.1338C26.4456 17.5317 25.6396 18.6031 25.6396 19.8593C25.6396 21.4536 26.9364 22.7505 28.5307 22.7505C29.0623 22.7505 29.4944 23.1826 29.4944 23.7142C29.4944 24.2457 29.0623 24.6779 28.5307 24.6779C28.1189 24.6779 27.6747 24.4189 27.2794 23.9487C26.9368 23.5414 26.3289 23.4887 25.9215 23.8312C25.5142 24.1738 25.4615 24.7818 25.8041 25.1891C26.3191 25.8019 26.9252 26.2288 27.567 26.4442V27.569H27.2463C26.7727 27.569 26.56 27.2603 26.2265 27.0446C24.1902 25.5185 21.668 24.6779 19.124 24.6779C18.7261 24.6779 18.3274 24.6986 17.9306 24.7389C17.9306 24.7185 17.9299 24.6986 17.9299 24.6779C17.9299 19.4577 21.5205 13.9163 25.9336 12.3247ZM12.5994 29.0571C14.4101 27.4715 16.7369 26.6053 19.124 26.6053C21.2539 26.6053 23.3654 27.3089 25.0693 28.5862C25.3151 28.73 25.9995 29.4964 27.2459 29.4964H31.4218C32.5188 29.4964 33.3493 30.3882 33.3493 31.4238C33.3493 32.4866 32.4846 33.3513 31.4218 33.3513H24.6759C24.1436 33.3513 23.7122 33.7827 23.7122 34.315C23.7122 34.8473 24.1436 35.2787 24.6759 35.2787H31.4218C33.5473 35.2787 35.2767 33.5493 35.2767 31.4238C35.2767 31.2029 35.2571 30.9849 35.2202 30.7703L44.6838 24.5612C45.134 24.283 45.6802 24.2179 46.1832 24.382C46.6891 24.5476 47.0931 24.926 47.2907 25.4206C47.5689 26.1148 47.3942 26.8921 46.8431 27.4037L35.1521 38.3607C34.6153 38.8591 33.9166 39.1335 33.1844 39.1335H17.3652L9.76734 31.5353L12.5994 29.0571ZM7.32908 31.8229L17.5309 42.0247L12.5331 47.0224L2.33134 36.8206L7.32908 31.8229Z" fill="#828282"/>
</svg>
