<svg width="42" height="38" viewBox="0 0 42 38" fill="none" xmlns="http://www.w3.org/2000/svg">
<path d="M8.24255 33.225V30.09C6.70255 29.958 5.23955 29.584 3.85355 28.968C2.48955 28.352 1.30155 27.505 0.289551 26.427L2.13755 24.183C2.97355 25.063 3.91955 25.778 4.97555 26.328C6.03155 26.878 7.12055 27.23 8.24255 27.384V20.421L6.82355 20.124C4.64555 19.684 3.08355 19.024 2.13755 18.144C1.21355 17.264 0.751551 16.01 0.751551 14.382C0.751551 12.556 1.43355 11.082 2.79755 9.96C4.18355 8.838 5.99855 8.255 8.24255 8.211V5.703H10.1236V8.277C11.4216 8.431 12.6976 8.739 13.9516 9.201C15.2056 9.663 16.3826 10.268 17.4826 11.016L15.9646 13.524C14.9526 12.864 13.9626 12.336 12.9946 11.94C12.0266 11.522 11.0696 11.236 10.1236 11.082V17.748L11.5096 18.012C13.8416 18.496 15.5026 19.178 16.4926 20.058C17.5046 20.938 18.0106 22.17 18.0106 23.754C18.0106 25.602 17.2846 27.109 15.8326 28.275C14.4026 29.419 12.4996 30.046 10.1236 30.156V33.225H8.24255ZM7.84655 17.352L8.24255 17.418V10.95C6.92255 10.972 5.85555 11.269 5.04155 11.841C4.22755 12.413 3.82055 13.172 3.82055 14.118C3.82055 15.064 4.10655 15.768 4.67855 16.23C5.25055 16.692 6.30655 17.066 7.84655 17.352ZM10.4536 20.751L10.1236 20.685V27.483C11.5096 27.395 12.6316 27.032 13.4896 26.394C14.3696 25.756 14.8096 24.953 14.8096 23.985C14.8096 23.061 14.5126 22.379 13.9186 21.939C13.3246 21.477 12.1696 21.081 10.4536 20.751Z" fill="#828282"/>
<line x1="22.8652" y1="7.93283" x2="22.8653" y2="20.807" stroke="#828282" stroke-width="2"/>
<line x1="32.8193" y1="21.8071" x2="21.8644" y2="21.8071" stroke="#828282" stroke-width="2"/>
<path fill-rule="evenodd" clip-rule="evenodd" d="M15.3667 33.4156C14.9186 33.9396 14.4463 34.4423 13.9517 34.9221C16.5899 36.4143 19.6383 37.266 22.8856 37.266C32.9223 37.266 41.0587 29.1296 41.0587 19.0928C41.0587 9.05605 32.9223 0.919647 22.8856 0.919647C19.6383 0.919647 16.5899 1.77135 13.9517 3.26357C14.4463 3.74331 14.9185 4.24603 15.3666 4.77001C17.6129 3.58835 20.1712 2.91965 22.8856 2.91965C31.8178 2.91965 39.0587 10.1606 39.0587 19.0928C39.0587 28.025 31.8178 35.266 22.8856 35.266C20.1712 35.266 17.613 34.5973 15.3667 33.4156Z" fill="#828282"/>
</svg>
