<svg width="50" height="31" viewBox="0 0 50 31" fill="none" xmlns="http://www.w3.org/2000/svg">
<path d="M49.8293 23.6907C49.5016 23.2045 48.8567 23.0776 48.3705 23.4053L40.4844 28.5746H30.1036V24.2404H40.8016C41.0236 24.2404 41.2455 24.1559 41.4147 24.029L49.5544 18.1515C50.0301 17.8132 50.1358 17.1472 49.787 16.6821C49.4487 16.2064 48.7827 16.1007 48.3176 16.4495L40.4633 22.1262H30.1036V17.6864H40.8016C41.0341 17.6969 41.2667 17.6229 41.457 17.4855L49.5967 11.0689C50.0513 10.6989 50.1253 10.0329 49.7553 9.57833C49.3959 9.12378 48.7405 9.04978 48.2859 9.39863L40.4316 15.5721H30.1036V11.3437H40.8016C41.0658 11.3331 41.3301 11.2274 41.5204 11.0477L49.6601 3.49995C49.9773 3.19339 50.083 2.72826 49.9244 2.31599C49.7659 1.90372 49.3747 1.62887 48.9413 1.6183H38.8565C38.8459 1.6183 38.8248 1.42802 38.7931 1.34345C38.6345 0.941749 38.2434 0.666901 37.8099 0.666901H21.6362C21.3719 0.666901 21.1076 0.772611 20.9173 0.95232L20.2091 1.6183H9.89168C9.6274 1.62887 9.36312 1.73458 9.17284 1.92486L1.0331 9.46205C0.715966 9.76861 0.610255 10.2337 0.768822 10.646C0.927388 11.0583 1.31852 11.3331 1.75193 11.3437H11.8156V15.5721H1.75193C1.17052 15.5721 0.694824 16.0478 0.694824 16.6293C0.694824 17.2107 1.17052 17.6864 1.75193 17.6864H11.8156V22.1262H1.75193C1.17052 22.1262 0.694824 22.6019 0.694824 23.1833C0.694824 23.7647 1.17052 24.2404 1.75193 24.2404H11.8156V28.5746H1.75193C1.17052 28.5746 0.694824 29.0503 0.694824 29.6317C0.694824 30.2131 1.17052 30.6888 1.75193 30.6888H40.8016C41.013 30.6782 41.2138 30.6148 41.383 30.488L49.5227 25.1601C50.009 24.843 50.1464 24.177 49.8293 23.6907ZM37.2602 3.73252H46.2457L40.3893 9.22949H31.3933L37.218 3.7748C37.2285 3.7748 37.2391 3.73252 37.2602 3.73252ZM12.1116 9.22949H4.44756L10.304 3.73252H17.9363L12.1645 9.14492C12.1433 9.15549 12.1327 9.12378 12.1116 9.22949ZM27.9894 9.91661V28.5746H13.9298V10.3817L21.171 3.62681L22.0484 2.78112H35.1249L28.3277 9.11321C28.1057 9.32463 27.9894 9.61005 27.9894 9.91661Z" fill="#828282"/>
<path d="M20.8962 14.4516C20.8962 14.4516 20.9068 14.4516 20.9174 14.4516C21.8793 14.4516 22.6616 15.2339 22.6616 16.1958C22.651 16.7772 23.1267 17.2529 23.7081 17.2635C24.2895 17.2741 24.7652 16.7984 24.7758 16.217C24.7758 16.2064 24.7758 16.2064 24.7758 16.1958C24.7547 14.4727 23.6236 12.9717 21.9639 12.4854V11.7983C21.9639 11.2168 21.4882 10.7411 20.9068 10.7411C20.3254 10.7411 19.8497 11.2168 19.8497 11.7983V12.4854C17.7989 13.0668 16.6149 15.2127 17.1963 17.2529C17.672 18.9126 19.1837 20.0543 20.9068 20.0543C21.8688 20.0543 22.651 20.8365 22.651 21.7985C22.651 22.7605 21.8688 23.5427 20.9068 23.5427C19.9448 23.5427 19.1626 22.7605 19.1626 21.7985C19.1626 21.2171 18.6869 20.7414 18.1054 20.7414C17.524 20.7414 17.0483 21.2171 17.0483 21.7985C17.0589 23.5216 18.2006 25.0227 19.8497 25.509V26.1961C19.8497 26.7775 20.3254 27.2532 20.9068 27.2532C21.4882 27.2532 21.9639 26.7775 21.9639 26.1961V25.509C23.613 25.0227 24.7547 23.5216 24.7758 21.7985C24.7758 19.6632 23.0527 17.9401 20.9174 17.9401C19.9554 17.9506 19.1626 17.1684 19.1626 16.2064C19.152 15.2444 19.9343 14.4516 20.8962 14.4516Z" fill="#828282"/>
</svg>
