<svg width="19" height="16" viewBox="0 0 19 16" fill="none" xmlns="http://www.w3.org/2000/svg">
<path d="M18.1227 0.629333C17.231 0.629333 1.88127 0.629333 1.34847 0.629333C0.955877 0.629333 0.637695 0.947515 0.637695 1.34011V14.5605C0.637695 14.9531 0.955877 15.2712 1.34847 15.2712H18.1227C18.5153 15.2712 18.8335 14.9531 18.8335 14.5605C18.8335 14.319 18.8335 1.77823 18.8335 1.34011C18.8335 0.947515 18.5153 0.629333 18.1227 0.629333ZM7.6506 2.05088H11.8204V5.56961H7.6506V2.05088ZM2.05924 2.05088H6.22905V5.56961H2.05924V2.05088ZM17.4119 13.8497H2.05924V6.99116H17.4119V13.8497ZM17.4119 5.56961H13.2421V2.05088H17.4119V5.56961ZM10.4809 10.5847L13.122 7.94362C13.3995 7.66611 13.8496 7.66611 14.1272 7.94362C14.4047 8.22126 14.4047 8.67119 14.1272 8.94883L10.9834 12.0925C10.7059 12.37 10.2557 12.3698 9.97824 12.0925L8.56683 10.6811L6.34913 12.8988C6.07149 13.1763 5.62157 13.1763 5.34392 12.8988C5.06641 12.6211 5.06641 12.171 5.34392 11.8935L8.06429 9.17317C8.34179 8.89566 8.79214 8.8958 9.0695 9.17317L10.4809 10.5847Z" fill="#828282"/>
</svg>
