<svg width="14" height="15" viewBox="0 0 14 15" fill="none" xmlns="http://www.w3.org/2000/svg">
<path d="M13.8014 5.65026C13.5761 5.42621 13.2119 5.42721 12.9879 5.65244L6.07286 12.6049C5.17572 13.502 3.71863 13.502 2.81982 12.6037C1.92168 11.7051 1.92168 10.248 2.81992 9.34973L9.93964 2.19261C10.4997 1.63253 11.4104 1.63253 11.9721 2.19383C12.5337 2.75539 12.5337 3.66591 11.972 4.22763L6.07394 10.1256C6.07356 10.126 6.07323 10.1264 6.07286 10.1268C5.84816 10.3503 5.48503 10.35 5.26079 10.1257C5.03617 9.9011 5.03617 9.53705 5.26079 9.31244L8.10772 6.46492C8.33233 6.24025 8.3323 5.87601 8.10764 5.65139C7.88297 5.42678 7.51873 5.4268 7.29411 5.65147L4.44721 8.49894C3.77334 9.17281 3.77334 10.2653 4.44727 10.9392C5.12117 11.6131 6.21367 11.6131 6.88759 10.9392C6.88838 10.9384 6.889 10.9376 6.88975 10.9368L12.7855 5.0411C13.7965 4.03009 13.7965 2.39113 12.7855 1.38011C11.7743 0.369695 10.1355 0.369695 9.12504 1.38011L2.00532 8.53728C0.658871 9.88373 0.658871 12.0691 2.00629 13.4172C3.35461 14.7648 5.53998 14.7648 6.88749 13.4173L13.8036 6.46378C14.0276 6.23852 14.0266 5.87431 13.8014 5.65026Z" fill="#19272B"/>
</svg>
