<svg width="32" height="33" viewBox="0 0 32 33" fill="none" xmlns="http://www.w3.org/2000/svg">
<path d="M29.5698 16.899C29.4405 16.6344 29.4405 16.331 29.5698 16.0664L30.7685 13.6142C31.4359 12.2489 30.9071 10.6215 29.5647 9.9092L27.1536 8.6299C26.8934 8.49192 26.7151 8.24636 26.6642 7.95641L26.1926 5.26792C25.9301 3.77105 24.5454 2.76518 23.041 2.97804L20.3384 3.36033C20.0467 3.4015 19.7583 3.30772 19.5467 3.10302L17.585 1.20528C16.4926 0.148565 14.7815 0.148502 13.6892 1.20528L11.7275 3.10321C11.5158 3.30797 11.2273 3.40157 10.9357 3.36051L8.23316 2.97823C6.72818 2.76524 5.34405 3.77123 5.08147 5.26811L4.60992 7.95647C4.55901 8.24648 4.38067 8.49199 4.12061 8.63002L1.70951 9.90933C0.367058 10.6215 -0.161739 12.2491 0.505659 13.6144L1.7043 16.0666C1.83361 16.3312 1.83361 16.6346 1.7043 16.8991L0.505597 19.3513C-0.161802 20.7166 0.366995 22.344 1.70945 23.0563L4.12055 24.3356C4.38067 24.4736 4.55901 24.7191 4.60992 25.0091L5.08147 27.6976C5.32051 29.0602 6.48896 30.0159 7.83185 30.0158C7.96411 30.0158 8.09832 30.0065 8.23322 29.9874L10.9358 29.6051C11.2272 29.5637 11.5158 29.6577 11.7275 29.8624L13.6892 31.7602C14.2355 32.2886 14.9361 32.5527 15.6371 32.5527C16.3378 32.5526 17.0389 32.2885 17.5849 31.7602L19.5467 29.8624C19.7583 29.6577 20.0468 29.5642 20.3384 29.6051L23.041 29.9874C24.5461 30.2003 25.9301 29.1944 26.1926 27.6975L26.6643 25.0092C26.7152 24.7191 26.8935 24.4736 27.1536 24.3356L29.5647 23.0563C30.9071 22.3441 31.4359 20.7166 30.7685 19.3512L29.5698 16.899ZM28.6958 21.4187L26.2847 22.6981C25.516 23.106 24.9888 23.8315 24.8385 24.6888L24.3669 27.3772C24.2781 27.8836 23.8099 28.2238 23.3006 28.1519L20.598 27.7696C19.7362 27.6475 18.8833 27.9249 18.2578 28.53L16.296 30.4277C15.9266 30.7851 15.3476 30.7851 14.978 30.4277L13.0163 28.5299C12.4876 28.0185 11.7965 27.7414 11.075 27.7414C10.9428 27.7414 10.8095 27.7507 10.6761 27.7696L7.97353 28.1519C7.46469 28.2238 6.9961 27.8836 6.90721 27.3771L6.4356 24.6886C6.2852 23.8314 5.75803 23.1058 4.98926 22.698L2.57816 21.4187C2.12394 21.1777 1.94504 20.6271 2.17083 20.1652L3.36953 17.713C3.75169 16.9311 3.75169 16.0343 3.36953 15.2524L2.17083 12.8002C1.94504 12.3383 2.12394 11.7877 2.57816 11.5467L4.98926 10.2674C5.75797 9.85942 6.2852 9.1339 6.43554 8.27668L6.90708 5.58825C6.99597 5.0818 7.46413 4.74157 7.9734 4.81351L10.676 5.1958C11.5375 5.31776 12.3906 5.0405 13.0162 4.43543L14.9779 2.53769C15.3474 2.18026 15.9264 2.18026 16.296 2.53769L18.2577 4.43543C18.8832 5.04056 19.7362 5.31776 20.5979 5.1958L23.3005 4.81351C23.8094 4.74151 24.278 5.0818 24.3668 5.58825L24.8383 8.27674C24.9887 9.13396 25.5159 9.85955 26.2847 10.2674L28.6958 11.5467C29.15 11.7877 29.3289 12.3383 29.1031 12.8002L27.9044 15.2523C27.5222 16.0342 27.5222 16.9311 27.9044 17.7129L29.1031 20.1651C29.329 20.6271 29.1501 21.1778 28.6958 21.4187Z" fill="#828282"/>
<path d="M22.4092 9.71046C22.0473 9.34851 21.4604 9.34851 21.0984 9.71046L8.86472 21.9442C8.50278 22.3062 8.50278 22.893 8.86472 23.255C9.0457 23.4359 9.28291 23.5265 9.52007 23.5265C9.75722 23.5265 9.9945 23.436 10.1754 23.255L22.4091 11.0213C22.7712 10.6593 22.7712 10.0725 22.4092 9.71046Z" fill="#828282"/>
<path d="M11.9296 8.14117C10.0557 8.14117 8.53113 9.66573 8.53113 11.5396C8.53113 13.4135 10.0557 14.9381 11.9296 14.9381C13.8035 14.9381 15.328 13.4135 15.328 11.5396C15.328 9.66573 13.8035 8.14117 11.9296 8.14117ZM11.9296 13.0843C11.0778 13.0843 10.3849 12.3914 10.3849 11.5396C10.3849 10.6878 11.0778 9.99485 11.9296 9.99485C12.7813 9.99485 13.4743 10.6878 13.4743 11.5396C13.4743 12.3914 12.7813 13.0843 11.9296 13.0843Z" fill="#828282"/>
<path d="M19.3442 18.0275C17.4704 18.0275 15.9458 19.552 15.9458 21.4259C15.9458 23.2998 17.4704 24.8244 19.3442 24.8244C21.2181 24.8244 22.7427 23.2998 22.7427 21.4259C22.7427 19.552 21.2181 18.0275 19.3442 18.0275ZM19.3442 22.9706C18.4925 22.9706 17.7995 22.2777 17.7995 21.4259C17.7995 20.5742 18.4924 19.8812 19.3442 19.8812C20.196 19.8812 20.889 20.5742 20.889 21.4259C20.889 22.2777 20.196 22.9706 19.3442 22.9706Z" fill="#828282"/>
</svg>
