<svg width="19" height="19" viewBox="0 0 19 19" fill="none" xmlns="http://www.w3.org/2000/svg">
<circle cx="9.22582" cy="9.19256" r="8.44506" stroke="#828282"/>
<path d="M8.91713 14.095V12.9451C8.35227 12.8966 7.81564 12.7595 7.30726 12.5335C6.80695 12.3076 6.3712 11.9969 6 11.6015L6.67784 10.7784C6.98448 11.1012 7.33147 11.3634 7.71881 11.5652C8.10615 11.7669 8.50559 11.896 8.91713 11.9525V9.39851L8.39665 9.28957C7.59777 9.12818 7.02483 8.8861 6.67784 8.56331C6.33892 8.24053 6.16946 7.78057 6.16946 7.18343C6.16946 6.51366 6.41962 5.973 6.91993 5.56145C7.42831 5.14991 8.09404 4.93606 8.91713 4.91993V4H9.60708V4.94413C10.0832 5.00062 10.5512 5.11359 11.0112 5.28305C11.4711 5.45251 11.9029 5.67443 12.3063 5.94879L11.7495 6.86872C11.3783 6.62663 11.0152 6.43296 10.6601 6.28771C10.3051 6.13439 9.95407 6.02949 9.60708 5.973V8.41806L10.1155 8.5149C10.9708 8.69243 11.5801 8.94258 11.9432 9.26536C12.3144 9.58814 12.5 10.04 12.5 10.621C12.5 11.2989 12.2337 11.8516 11.7011 12.2793C11.1766 12.6989 10.4786 12.9289 9.60708 12.9693V14.095H8.91713ZM8.77188 8.27281L8.91713 8.29702V5.92458C8.43296 5.93265 8.04159 6.04159 7.74302 6.2514C7.44444 6.4612 7.29516 6.7396 7.29516 7.08659C7.29516 7.43358 7.40006 7.69181 7.60987 7.86127C7.81968 8.03073 8.20701 8.16791 8.77188 8.27281ZM9.72812 9.51955L9.60708 9.49535V11.9888C10.1155 11.9565 10.527 11.8234 10.8417 11.5894C11.1645 11.3554 11.3259 11.0608 11.3259 10.7058C11.3259 10.3669 11.2169 10.1167 10.9991 9.95531C10.7812 9.78585 10.3575 9.6406 9.72812 9.51955Z" fill="#828282"/>
</svg>
