<svg width="19" height="17" viewBox="0 0 19 17" fill="none" xmlns="http://www.w3.org/2000/svg">
<path d="M17.1743 6.07701V5.11051C17.1743 4.00655 16.3265 3.12333 15.2666 3.12333H10.2632C9.87138 3.12333 9.50345 2.89841 9.30344 2.54844L8.88752 1.81102C8.53951 1.21525 7.91168 0.831985 7.23972 0.831985H3.96419C3.43623 0.831985 2.94035 1.0569 2.57644 1.45687C2.21238 1.85684 2.02441 2.38591 2.04847 2.93587L2.18444 6.08119H2.05636C1.70849 6.08119 1.38053 6.23536 1.15258 6.50623C0.924631 6.77696 0.816606 7.13947 0.864602 7.49767L1.85649 14.9342C1.98844 15.9174 2.80425 16.663 3.75616 16.663H15.4864C16.4424 16.663 17.2582 15.9132 17.3903 14.9258L18.3661 7.49767C18.4141 7.13947 18.3021 6.77696 18.0741 6.50623C17.8503 6.23536 17.5343 6.07701 17.1743 6.07701ZM2.84436 2.90245C2.83233 2.58172 2.94035 2.26921 3.15226 2.03594C3.3643 1.80267 3.65228 1.66521 3.96018 1.66521H7.23571C7.62771 1.66521 7.99564 1.89013 8.19564 2.2401L8.61157 2.97751C8.95543 3.57747 9.58741 3.96073 10.2594 3.96073H15.2626C15.8786 3.96073 16.3704 4.46891 16.3704 5.11469V6.08119H2.98434L2.84436 2.90245ZM17.5742 7.3811L16.5984 14.8133C16.5224 15.3882 16.0465 15.8298 15.4906 15.8298H3.76017C3.20427 15.8298 2.72831 15.3882 2.65237 14.8175L1.65648 7.38528C1.64057 7.26439 1.67252 7.14783 1.75247 7.05619C1.83242 6.96442 1.93644 6.91442 2.05248 6.91442H17.1784C17.2943 6.91442 17.4023 6.96038 17.4782 7.05619C17.5583 7.14783 17.5903 7.26022 17.5742 7.3811Z" fill="#828282"/>
<path d="M12.1831 7.98087C12.1191 7.83506 11.9751 7.7476 11.8191 7.7476H7.41168C7.19175 7.7476 7.01581 7.92252 7.01581 8.15175V14.5925C7.01581 14.8216 7.19576 15.0091 7.41569 15.0091C7.63575 15.0091 7.81571 14.8216 7.81571 14.5925V11.7887H11.8191C11.9751 11.7887 12.1151 11.7012 12.1831 11.5554C12.247 11.4096 12.2271 11.2389 12.1271 11.118L11.0432 9.76821L12.1271 8.42249C12.227 8.29757 12.247 8.12669 12.1831 7.98087ZM10.2153 10.0264L10.9632 10.9555H7.81571V8.58083H10.9673L10.2154 9.5057C10.0913 9.65986 10.0913 9.87238 10.2153 10.0264Z" fill="#828282"/>
</svg>
